<?xml version="1.0" encoding="UTF-8" standalone="no"?>
<svg
   version="1.1"
   viewBox="0 0 960 320"
   fill="none"
   stroke="none"
   stroke-linecap="square"
   stroke-miterlimit="10"
   id="svg273"
   sodipodi:docname="CPHS block diagrams_AC.svg"
   width="960"
   height="320"
   inkscape:version="1.1.2 (b8e25be833, 2022-02-05)"
   xmlns:inkscape="http://www.inkscape.org/namespaces/inkscape"
   xmlns:sodipodi="http://sodipodi.sourceforge.net/DTD/sodipodi-0.dtd"
   xmlns="http://www.w3.org/2000/svg"
   xmlns:svg="http://www.w3.org/2000/svg">
  <defs
     id="defs277" />
  <sodipodi:namedview
     id="namedview275"
     pagecolor="#ffffff"
     bordercolor="#666666"
     borderopacity="1.0"
     inkscape:pageshadow="2"
     inkscape:pageopacity="0.0"
     inkscape:pagecheckerboard="0"
     showgrid="false"
     height="300px"
     inkscape:zoom="1.587037"
     inkscape:cx="479.82497"
     inkscape:cy="219.5916"
     inkscape:window-width="1920"
     inkscape:window-height="1121"
     inkscape:window-x="-9"
     inkscape:window-y="-9"
     inkscape:window-maximized="1"
     inkscape:current-layer="g271" />
  <clipPath
     id="g11c17b98cf2_0_0.0">
    <path
       d="M 0,0 H 960 V 540 H 0 Z"
       clip-rule="nonzero"
       id="path144" />
  </clipPath>
  <g
     clip-path="url(#g11c17b98cf2_0_0.0)"
     id="g271">
    <path
       fill="#d9d2e9"
       d="m 45.605113,77.44095 v 0 c 0,-12.521355 10.473135,-22.67192 23.392412,-22.67192 H 413.73622 c 6.20405,0 12.154,2.388645 16.54092,6.640453 4.38691,4.251812 6.85146,10.018505 6.85146,16.031467 v 117.96324 c 0,12.52136 -10.47311,22.67192 -23.39238,22.67192 H 68.997525 c -12.919276,0 -23.392412,-10.15056 -23.392412,-22.67192 z"
       fill-rule="evenodd"
       id="path149"
       style="stroke-width:1.01577" />
    <path
       stroke="#8e7cc3"
       stroke-width="3.04729"
       stroke-miterlimit="800"
       stroke-linecap="butt"
       d="m 45.605113,77.44095 v 0 c 0,-12.521355 10.473135,-22.67192 23.392411,-22.67192 H 413.73622 c 6.20405,0 12.154,2.388645 16.54092,6.640453 4.38691,4.251812 6.85146,10.018505 6.85146,16.031467 v 117.96324 c 0,12.52136 -10.47311,22.67192 -23.39238,22.67192 H 68.997524 c -12.919276,0 -23.392411,-10.15056 -23.392411,-22.67192 z"
       fill-rule="evenodd"
       id="path151" />
    <path
       fill="#ffffff"
       d="M 68.38319,82.879265 215.78477,142.0202 68.38319,202.34383 Z"
       fill-rule="evenodd"
       id="path153" />
    <path
       stroke="#000000"
       stroke-width="3"
       stroke-miterlimit="800"
       stroke-linecap="butt"
       d="M 68.38319,82.879265 215.78477,142.0202 68.38319,202.34383 Z"
       fill-rule="evenodd"
       id="path155" />
    <path
       fill="#ffffff"
       d="m 270.6824,107.11549 h 151.37009 v 70.29922 H 270.6824 Z"
       fill-rule="evenodd"
       id="path157" />
    <path
       stroke="#000000"
       stroke-width="3"
       stroke-miterlimit="800"
       stroke-linecap="butt"
       d="m 270.6824,107.11549 h 151.37009 v 70.29922 H 270.6824 Z"
       fill-rule="evenodd"
       id="path159" />
    <path
       fill="#000000"
       fill-opacity="0"
       d="m 215.78476,142.0202 54.89764,0.25197"
       fill-rule="evenodd"
       id="path161" />
    <path
       stroke="#000000"
       stroke-width="3"
       stroke-miterlimit="800"
       stroke-linecap="butt"
       d="m 215.78476,142.0202 36.89781,0.16934"
       fill-rule="evenodd"
       id="path163" />
    <path
       fill="#000000"
       stroke="#000000"
       stroke-width="3"
       stroke-linecap="butt"
       d="m 252.65984,147.1447 13.63689,-4.89267 -13.5914,-5.01762 z"
       fill-rule="evenodd"
       id="path165" />
    <path
       fill="#ffffff"
       d="m 545.1496,143.47781 v 0 c 0,-11.60233 9.86383,-21.00787 22.03149,-21.00787 v 0 c 5.84314,0 11.4469,2.21332 15.57862,6.15306 4.13171,3.93974 6.45288,9.28318 6.45288,14.85481 v 0 c 0,11.60233 -9.86383,21.00787 -22.0315,21.00787 v 0 c -12.16766,0 -22.03149,-9.40554 -22.03149,-21.00787 z"
       fill-rule="evenodd"
       id="path167" />
    <path
       stroke="#000000"
       stroke-width="3"
       stroke-miterlimit="800"
       stroke-linecap="butt"
       d="m 545.1496,143.47781 v 0 c 0,-11.60233 9.86383,-21.00787 22.03149,-21.00787 v 0 c 5.84314,0 11.4469,2.21332 15.57862,6.15306 4.13171,3.93974 6.45288,9.28318 6.45288,14.85481 v 0 c 0,11.60233 -9.86383,21.00787 -22.0315,21.00787 v 0 c -12.16766,0 -22.03149,-9.40554 -22.03149,-21.00787 z"
       fill-rule="evenodd"
       id="path169" />
    <path
       fill="#ffffff"
       d="M 634.4069,90.56431 H 774.97386 V 197.20998 H 634.4069 Z"
       fill-rule="evenodd"
       id="path171" />
    <path
       stroke="#000000"
       stroke-width="3"
       stroke-miterlimit="800"
       stroke-linecap="butt"
       d="M 634.4069,90.56431 H 774.97386 V 197.20998 H 634.4069 Z"
       fill-rule="evenodd"
       id="path173" />
    <path
       fill="#000000"
       fill-opacity="0"
       d="M 395.67972,270.14304 H 22.58237 V 142.01706 h 45.79026"
       fill-rule="evenodd"
       id="path175" />
    <path
       stroke="#000000"
       stroke-width="3"
       stroke-miterlimit="800"
       stroke-linecap="butt"
       d="M 395.67972,270.14304 H 22.58237 V 142.01706 h 27.790258"
       fill-rule="evenodd"
       id="path177" />
    <path
       fill="#000000"
       stroke="#000000"
       stroke-width="3"
       stroke-linecap="butt"
       d="m 50.372623,146.97226 13.614292,-4.9552 -13.614292,-4.9552 z"
       fill-rule="evenodd"
       id="path179" />
    <path
       fill="#000000"
       fill-opacity="0"
       d="m 777.23096,143.88715 h 25.00134 v 126.2677 H 452.41208"
       fill-rule="evenodd"
       id="path181" />
    <path
       stroke="#000000"
       stroke-width="3"
       stroke-miterlimit="800"
       stroke-linecap="butt"
       d="m 777.23096,143.88715 h 25.00134 v 126.2677 H 470.41208"
       fill-rule="evenodd"
       id="path183" />
    <path
       fill="#000000"
       stroke="#000000"
       stroke-width="3"
       stroke-linecap="butt"
       d="m 470.41208,265.19965 -13.61429,4.9552 13.61429,4.9552 z"
       fill-rule="evenodd"
       id="path185" />
    <path
       fill="#000000"
       fill-opacity="0"
       d="M 44.35679,122.87965 H 194.53001 V 164.8954 H 44.35679 Z"
       fill-rule="evenodd"
       id="path187" />
    <path
       fill="#000000"
       d="m 90.76073,142.5109 h 6.65625 v 9.23437 q -1.5,0.5 -3.078125,0.75 -1.578125,0.25 -3.53125,0.25 -2.96875,0 -5.015625,-1.1875 -2.03125,-1.1875 -3.09375,-3.375 -1.046875,-2.20312 -1.046875,-5.21875 0,-2.95312 1.15625,-5.15625 1.171875,-2.20312 3.375,-3.40625 2.21875,-1.21875 5.3125,-1.21875 1.59375,0 3.015625,0.29688 1.421875,0.28125 2.640625,0.8125 l -0.84375,1.9375 q -1.046875,-0.46875 -2.328125,-0.78125 -1.265625,-0.32813 -2.609375,-0.32813 -2.34375,0 -4,0.96875 -1.65625,0.95313 -2.53125,2.71875 -0.875,1.75 -0.875,4.15625 0,2.39063 0.765625,4.15625 0.765625,1.75 2.390625,2.73438 1.625,0.96875 4.1875,0.96875 1.296875,0 2.21875,-0.14063 0.921875,-0.15625 1.671875,-0.35937 v -5.82813 h -4.4375 z m 16.25545,-4.53125 q 2.5625,0 3.79687,1.15625 1.23438,1.14062 1.23438,3.64062 v 9.70313 h -1.57813 l -0.42187,-2.10938 h -0.0937 q -0.60938,0.78125 -1.26563,1.3125 -0.64062,0.53125 -1.5,0.79688 -0.84375,0.26562 -2.07812,0.26562 -1.29688,0 -2.3125,-0.45312 -1.01563,-0.46875 -1.59375,-1.39063 -0.57813,-0.92187 -0.57813,-2.34375 0,-2.125 1.6875,-3.26562 1.70313,-1.15625 5.15625,-1.26563 l 2.46875,-0.0937 v -0.875 q 0,-1.84375 -0.79687,-2.57812 -0.79688,-0.75 -2.23438,-0.75 -1.125,0 -2.14062,0.32812 -1.01563,0.3125 -1.92188,0.76563 l -0.67187,-1.64063 q 0.96875,-0.5 2.21875,-0.84375 1.25,-0.35937 2.625,-0.35937 z m 2.89062,7.46875 -2.17187,0.0937 q -2.67188,0.10937 -3.76563,0.875 -1.09375,0.76562 -1.09375,2.17187 0,1.21875 0.73438,1.8125 0.75,0.57813 1.98437,0.57813 1.89063,0 3.09375,-1.04688 1.21875,-1.0625 1.21875,-3.17187 z m 8.74942,-7.23438 v 14.26563 h -2.15625 v -14.26563 z m -1.04687,-5.34375 q 0.53125,0 0.90625,0.35938 0.39062,0.34375 0.39062,1.0625 0,0.71875 -0.39062,1.07812 -0.375,0.34375 -0.90625,0.34375 -0.5625,0 -0.9375,-0.34375 -0.375,-0.35937 -0.375,-1.07812 0,-0.71875 0.375,-1.0625 0.375,-0.35938 0.9375,-0.35938 z m 12.36976,5.07813 q 2.54688,0 3.84375,1.25 1.29688,1.23437 1.29688,3.98437 v 9.29688 h -2.125 v -9.15625 q 0,-1.78125 -0.82813,-2.65625 -0.8125,-0.89063 -2.48437,-0.89063 -2.375,0 -3.34375,1.34375 -0.95313,1.34375 -0.95313,3.89063 v 7.46875 h -2.15625 v -14.26563 h 1.73438 l 0.32812,2.0625 h 0.125 q 0.45313,-0.76562 1.15625,-1.26562 0.70313,-0.51563 1.5625,-0.78125 0.875,-0.28125 1.84375,-0.28125 z"
       fill-rule="nonzero"
       id="path189" />
    <path
       fill="#000000"
       d="m 152.88342,151.27652 q -0.73438,-1.28125 -1.1875,-2.53125 -0.4375,-1.25 -0.82813,-2.375 l -0.89062,-0.26563 -1.1875,6.375 h -3.73438 l 3.54688,-17.82812 -1.79688,-0.34375 v -0.90625 q 0.375,-0.17188 0.98438,-0.34375 0.625,-0.17188 1.34375,-0.29688 0.71875,-0.14062 1.5,-0.23437 0.79687,-0.0937 1.53125,-0.0937 l 0.5625,0.29687 -2.48438,12.20313 h 0.85938 q 0.45312,-0.34375 0.9375,-0.8125 0.48437,-0.48438 0.90625,-0.96875 0.42187,-0.48438 0.75,-0.95313 0.34375,-0.46875 0.53125,-0.78125 0.0156,-0.1875 0.0312,-0.5 0.0156,-0.32812 0,-0.65625 -0.0156,-0.34375 -0.0312,-0.64062 0,-0.3125 -0.0312,-0.46875 0.45312,-0.15625 1.14062,-0.25 0.70313,-0.0937 1.42188,-0.0937 0.71875,0 1.34375,0.0937 0.625,0.0937 0.92187,0.25 -0.34375,0.875 -1.03125,1.73437 -0.67187,0.84375 -1.46875,1.59375 -0.78125,0.75 -1.54687,1.35938 -0.75,0.59375 -1.23438,0.9375 0.1875,0.5 0.5625,1.28125 0.39063,0.76562 0.875,1.60937 0.48438,0.84375 1.01563,1.625 0.53125,0.78125 0.98437,1.34375 h 1.4375 v 0.90625 q -0.26562,0.21875 -0.6875,0.4375 -0.40625,0.20313 -0.89062,0.375 -0.46875,0.15625 -0.98438,0.25 -0.5,0.10938 -0.98437,0.10938 -0.64063,0 -1.1875,-0.28125 -0.54688,-0.29688 -1,-1.15625 z"
       fill-rule="nonzero"
       id="path191" />
    <path
       fill="#000000"
       fill-opacity="0"
       d="m 272.71652,120.61942 h 150.17325 v 42.01575 H 272.71652 Z"
       fill-rule="evenodd"
       id="path193" />
    <path
       fill="#000000"
       d="m 322.24197,140.5163 q 0,3.21875 -1.17188,5.375 -1.17187,2.15625 -3.39062,3.25 -2.21875,1.07812 -5.39063,1.07812 h -5.15625 v -19.03125 h 5.73438 q 2.90625,0 5,1.0625 2.09375,1.0625 3.23437,3.14063 1.14063,2.07812 1.14063,5.125 z m -2.32813,0.0781 q 0,-2.5625 -0.85937,-4.21875 -0.85938,-1.67187 -2.5,-2.48437 -1.64063,-0.8125 -4.03125,-0.8125 h -3.1875 v 15.23437 h 2.70312 q 3.92188,0 5.89063,-1.9375 1.98437,-1.9375 1.98437,-5.78125 z m 11.7164,-4.90625 q 1.82813,0 3.125,0.8125 1.3125,0.8125 2,2.26563 0.6875,1.4375 0.6875,3.39062 v 1.32813 h -9.85937 q 0.0469,2.51562 1.25,3.82812 1.21875,1.3125 3.40625,1.3125 1.35937,0 2.39062,-0.23437 1.04688,-0.25 2.17188,-0.73438 v 1.90625 q -1.07813,0.46875 -2.14063,0.6875 -1.0625,0.23438 -2.5,0.23438 -2.0625,0 -3.59375,-0.84375 -1.53125,-0.84375 -2.375,-2.46875 -0.84375,-1.625 -0.84375,-3.98438 0,-2.29687 0.76563,-3.98437 0.78125,-1.6875 2.1875,-2.59375 1.42187,-0.92188 3.32812,-0.92188 z m -0.0156,1.78125 q -1.73438,0 -2.76563,1.14063 -1.03125,1.125 -1.21875,3.15625 h 7.54688 q -0.0156,-1.28125 -0.40625,-2.25 -0.375,-0.96875 -1.15625,-1.5 -0.78125,-0.54688 -2,-0.54688 z m 11.67123,12.75 H 341.114 v -20.25 h 2.17187 z m 9.88538,-14.5 q 2.5625,0 3.79688,1.15625 1.23437,1.14063 1.23437,3.64063 v 9.70312 h -1.57812 l -0.42188,-2.10937 h -0.0937 q -0.60937,0.78125 -1.26562,1.3125 -0.64063,0.53125 -1.5,0.79687 -0.84375,0.26563 -2.07813,0.26563 -1.29687,0 -2.3125,-0.45313 -1.01562,-0.46875 -1.59375,-1.39062 -0.57812,-0.92188 -0.57812,-2.34375 0,-2.125 1.6875,-3.26563 1.70312,-1.15625 5.15625,-1.26562 l 2.46875,-0.0937 v -0.875 q 0,-1.84375 -0.79688,-2.57813 -0.79687,-0.75 -2.23437,-0.75 -1.125,0 -2.14063,0.32813 -1.01562,0.3125 -1.92187,0.76562 l -0.67188,-1.64062 q 0.96875,-0.5 2.21875,-0.84375 1.25,-0.35938 2.625,-0.35938 z m 2.89063,7.46875 -2.17188,0.0937 q -2.67187,0.10938 -3.76562,0.875 -1.09375,0.76563 -1.09375,2.17188 0,1.21875 0.73437,1.8125 0.75,0.57812 1.98438,0.57812 1.89062,0 3.09375,-1.04687 1.21875,-1.0625 1.21875,-3.17188 z m 4.34317,-7.23437 h 2.3125 l 3.15625,8.28125 q 0.26562,0.71875 0.5,1.39062 0.23437,0.67188 0.40625,1.29688 0.1875,0.60937 0.29687,1.17187 h 0.0937 q 0.17188,-0.64062 0.51563,-1.70312 0.34375,-1.0625 0.73437,-2.17188 l 2.98438,-8.26562 h 2.32812 l -6.21875,16.35937 q -0.48437,1.3125 -1.14062,2.28125 -0.65625,0.98438 -1.59375,1.51563 -0.9375,0.53125 -2.26563,0.53125 -0.625,0 -1.09375,-0.0781 -0.46875,-0.0625 -0.79687,-0.15625 v -1.73437 q 0.28125,0.0625 0.6875,0.10937 0.42187,0.0625 0.85937,0.0625 0.8125,0 1.39063,-0.3125 0.59375,-0.29687 1.01562,-0.89062 0.4375,-0.57813 0.75,-1.39063 l 0.78125,-2 z"
       fill-rule="nonzero"
       id="path195" />
    <path
       fill="#000000"
       d="m 392.26987,137.11005 q -0.54687,2.39062 -1.70312,2.92187 -1.15625,0.51563 -3.23438,0.51563 l -1.67187,6.07812 q -0.25,0.8125 -0.25,1.35938 0,0.53125 0.25,0.53125 0.65625,0 1.20312,-0.79688 0.5625,-0.8125 0.98438,-2.40625 l 1.625,0.625 q -0.79688,2.40625 -1.75,3.51563 -0.9375,1.10937 -2.84375,1.10937 -1.07813,0 -1.875,-0.67187 -0.79688,-0.6875 -0.79688,-1.8125 0,-0.625 0.42188,-2.28125 0.42187,-1.67188 0.96875,-3.625 0.54687,-1.96875 0.75,-1.92188 -0.8125,0.15625 -1.375,0.15625 -0.32813,0 -0.71875,0.29688 -0.375,0.28125 -0.73438,1.0625 h -1.70312 q 0.90625,-2.45313 1.98437,-3.28125 1.07813,-0.84375 3,-0.84375 0.98438,0 2.60938,0.0625 1.625,0.0625 2.5625,0.0625 0.45312,0 0.79687,-0.65625 z"
       fill-rule="nonzero"
       id="path197" />
    <path
       fill="#000000"
       fill-opacity="0"
       d="m 636.66406,90.56431 h 140.5669 v 106.64567 h -140.5669 z"
       fill-rule="evenodd"
       id="path199" />
    <path
       fill="#000000"
       d="m 675.38043,115.10181 q 0,1.6875 -0.84375,2.89063 -0.84375,1.1875 -2.35937,1.8125 -1.5,0.625 -3.54688,0.625 -1.07812,0 -2.04687,-0.10938 -0.95313,-0.10937 -1.76563,-0.29687 -0.79687,-0.20313 -1.42187,-0.48438 v -2.125 q 0.98437,0.40625 2.39062,0.75 1.40625,0.34375 2.9375,0.34375 1.4375,0 2.42188,-0.375 0.98437,-0.39062 1.5,-1.10937 0.51562,-0.71875 0.51562,-1.73438 0,-0.98437 -0.4375,-1.64062 -0.42187,-0.65625 -1.42187,-1.1875 -0.98438,-0.54688 -2.70313,-1.15625 -1.21875,-0.4375 -2.14062,-0.95313 -0.92188,-0.51562 -1.54688,-1.15625 -0.625,-0.65625 -0.95312,-1.51562 -0.3125,-0.85938 -0.3125,-1.96875 0,-1.51563 0.76562,-2.59375 0.78125,-1.09375 2.15625,-1.67188 1.375,-0.57812 3.15625,-0.57812 1.53125,0 2.82813,0.28125 1.29687,0.28125 2.375,0.76562 l -0.6875,1.90625 q -1.03125,-0.4375 -2.1875,-0.71875 -1.15625,-0.28125 -2.375,-0.28125 -1.21875,0 -2.0625,0.35938 -0.84375,0.34375 -1.28125,1 -0.4375,0.65625 -0.4375,1.54687 0,1 0.42187,1.67188 0.42188,0.65625 1.34375,1.17187 0.9375,0.51563 2.46875,1.07813 1.6875,0.60937 2.85938,1.29687 1.17187,0.6875 1.78125,1.67188 0.60937,0.96875 0.60937,2.48437 z m 1.3042,-9.20312 h 2.3125 l 3.15625,8.28125 q 0.26562,0.71875 0.5,1.39062 0.23437,0.67188 0.40625,1.29688 0.1875,0.60937 0.29687,1.17187 h 0.0937 q 0.17188,-0.64062 0.51563,-1.70312 0.34375,-1.0625 0.73437,-2.17188 l 2.98438,-8.26562 h 2.32812 l -6.21875,16.35937 q -0.48437,1.3125 -1.14062,2.28125 -0.65625,0.98438 -1.59375,1.51563 -0.9375,0.53125 -2.26563,0.53125 -0.625,0 -1.09375,-0.0781 -0.46875,-0.0625 -0.79687,-0.15625 v -1.73437 q 0.28125,0.0625 0.6875,0.10937 0.42187,0.0625 0.85937,0.0625 0.8125,0 1.39063,-0.3125 0.59375,-0.29687 1.01562,-0.89062 0.4375,-0.57813 0.75,-1.39063 l 0.78125,-2 z m 24.82288,10.35937 q 0,1.375 -0.6875,2.3125 -0.67188,0.92188 -1.95313,1.39063 -1.26562,0.46875 -3.01562,0.46875 -1.5,0 -2.59375,-0.23438 -1.09375,-0.23437 -1.90625,-0.67187 v -1.98438 q 0.875,0.42188 2.07812,0.78125 1.21875,0.34375 2.46875,0.34375 1.85938,0 2.6875,-0.59375 0.82813,-0.59375 0.82813,-1.625 0,-0.59375 -0.32813,-1.03125 -0.32812,-0.45312 -1.10937,-0.875 -0.78125,-0.42187 -2.15625,-0.9375 -1.375,-0.51562 -2.375,-1.03125 -0.98438,-0.51562 -1.53125,-1.25 -0.54688,-0.75 -0.54688,-1.9375 0,-1.8125 1.46875,-2.78125 1.46875,-0.96875 3.84375,-0.96875 1.29688,0 2.42188,0.26563 1.125,0.25 2.09375,0.67187 l -0.71875,1.73438 q -0.89063,-0.375 -1.89063,-0.625 -1,-0.26563 -2.04687,-0.26563 -1.5,0 -2.29688,0.5 -0.79687,0.48438 -0.79687,1.34375 0,0.65625 0.35937,1.09375 0.375,0.42188 1.1875,0.8125 0.82813,0.375 2.17188,0.875 1.34375,0.5 2.3125,1.03125 0.98437,0.51563 1.5,1.26563 0.53125,0.75 0.53125,1.92187 z m 8.09399,2.39063 q 0.53125,0 1.07812,-0.0781 0.5625,-0.0937 0.92188,-0.23437 v 1.6875 q -0.375,0.17187 -1.04688,0.28125 -0.67187,0.125 -1.3125,0.125 -1.125,0 -2.0625,-0.39063 -0.92187,-0.40625 -1.46875,-1.35937 -0.54687,-0.95313 -0.54687,-2.625 v -8.46875 h -2.03125 v -1.04688 l 2.03125,-0.84375 0.85937,-3.10937 h 1.3125 v 3.3125 h 4.17188 v 1.6875 h -4.17188 v 8.40625 q 0,1.32812 0.60938,2 0.625,0.65625 1.65625,0.65625 z m 10.37653,-13.01563 q 1.82812,0 3.125,0.8125 1.3125,0.8125 2,2.26563 0.6875,1.4375 0.6875,3.39062 v 1.32813 h -9.85938 q 0.0469,2.51562 1.25,3.82812 1.21875,1.3125 3.40625,1.3125 1.35938,0 2.39063,-0.23437 1.04687,-0.25 2.17187,-0.73438 v 1.90625 q -1.07812,0.46875 -2.14062,0.6875 -1.0625,0.23438 -2.5,0.23438 -2.0625,0 -3.59375,-0.84375 -1.53125,-0.84375 -2.375,-2.46875 -0.84375,-1.625 -0.84375,-3.98438 0,-2.29687 0.76562,-3.98437 0.78125,-1.6875 2.1875,-2.59375 1.42188,-0.92188 3.32813,-0.92188 z m -0.0156,1.78125 q -1.73437,0 -2.76562,1.14063 -1.03125,1.125 -1.21875,3.15625 h 7.54687 q -0.0156,-1.28125 -0.40625,-2.25 -0.375,-0.96875 -1.15625,-1.5 -0.78125,-0.54688 -2,-0.54688 z m 24.9837,-1.78125 q 2.35938,0 3.54688,1.23438 1.20312,1.23437 1.20312,3.95312 v 9.34375 h -2.14062 v -9.23437 q 0,-1.73438 -0.75,-2.59375 -0.73438,-0.875 -2.20313,-0.875 -2.07812,0 -3.01562,1.20312 -0.9375,1.1875 -0.9375,3.51563 v 7.98437 h -2.14063 v -9.23437 q 0,-1.17188 -0.34375,-1.9375 -0.32812,-0.76563 -0.98437,-1.14063 -0.65625,-0.39062 -1.65625,-0.39062 -1.42188,0 -2.28125,0.59375 -0.85938,0.57812 -1.25,1.73437 -0.375,1.14063 -0.375,2.82813 v 7.54687 h -2.15625 v -14.26562 h 1.73437 l 0.32813,2.01562 h 0.125 q 0.42187,-0.73437 1.07812,-1.23437 0.65625,-0.51563 1.45313,-0.78125 0.8125,-0.26563 1.71875,-0.26563 1.625,0 2.71875,0.60938 1.10937,0.60937 1.60937,1.84375 h 0.10938 q 0.70312,-1.23438 1.92187,-1.84375 1.23438,-0.60938 2.6875,-0.60938 z"
       fill-rule="nonzero"
       id="path201" />
    <path
       fill="#000000"
       d="m 664.2992,142.46118 q 0,3.21875 -1.17187,5.375 -1.17188,2.15625 -3.39063,3.25 -2.21875,1.07813 -5.39062,1.07813 h -5.15625 v -19.03125 h 5.73437 q 2.90625,0 5,1.0625 2.09375,1.0625 3.23438,3.14062 1.14062,2.07813 1.14062,5.125 z m -2.32812,0.0781 q 0,-2.5625 -0.85938,-4.21875 -0.85937,-1.67188 -2.5,-2.48438 -1.64062,-0.8125 -4.03125,-0.8125 h -3.1875 v 15.23438 h 2.70313 q 3.92187,0 5.89062,-1.9375 1.98438,-1.9375 1.98438,-5.78125 z m 3.98205,-4.64063 h 2.3125 l 3.15625,8.28125 q 0.26563,0.71875 0.5,1.39063 0.23438,0.67187 0.40625,1.29687 0.1875,0.60938 0.29688,1.17188 h 0.0937 q 0.17187,-0.64063 0.51562,-1.70313 0.34375,-1.0625 0.73438,-2.17187 l 2.98437,-8.26563 h 2.32813 l -6.21875,16.35938 q -0.48438,1.3125 -1.14063,2.28125 -0.65625,0.98437 -1.59375,1.51562 -0.9375,0.53125 -2.26562,0.53125 -0.625,0 -1.09375,-0.0781 -0.46875,-0.0625 -0.79688,-0.15625 v -1.73438 q 0.28125,0.0625 0.6875,0.10938 0.42188,0.0625 0.85938,0.0625 0.8125,0 1.39062,-0.3125 0.59375,-0.29688 1.01563,-0.89063 0.4375,-0.57812 0.75,-1.39062 l 0.78125,-2 z m 22.35413,-0.26562 q 2.54687,0 3.84375,1.25 1.29687,1.23437 1.29687,3.98437 v 9.29688 h -2.125 v -9.15625 q 0,-1.78125 -0.82812,-2.65625 -0.8125,-0.89063 -2.48438,-0.89063 -2.375,0 -3.34375,1.34375 -0.95312,1.34375 -0.95312,3.89063 v 7.46875 h -2.15625 v -14.26563 h 1.73437 l 0.32813,2.0625 h 0.125 q 0.45312,-0.76562 1.15625,-1.26562 0.70312,-0.51563 1.5625,-0.78125 0.875,-0.28125 1.84375,-0.28125 z m 14.9259,0.0312 q 2.5625,0 3.79687,1.15625 1.23438,1.14062 1.23438,3.64062 v 9.70313 h -1.57813 l -0.42187,-2.10938 h -0.0937 q -0.60938,0.78125 -1.26563,1.3125 -0.64062,0.53125 -1.5,0.79688 -0.84375,0.26562 -2.07812,0.26562 -1.29688,0 -2.3125,-0.45312 -1.01563,-0.46875 -1.59375,-1.39063 -0.57813,-0.92187 -0.57813,-2.34375 0,-2.125 1.6875,-3.26562 1.70313,-1.15625 5.15625,-1.26563 l 2.46875,-0.0937 v -0.875 q 0,-1.84375 -0.79687,-2.57812 -0.79688,-0.75 -2.23438,-0.75 -1.125,0 -2.14062,0.32812 -1.01563,0.3125 -1.92188,0.76563 l -0.67187,-1.64063 q 0.96875,-0.5 2.21875,-0.84375 1.25,-0.35937 2.625,-0.35937 z m 2.89062,7.46875 -2.17187,0.0937 q -2.67188,0.10937 -3.76563,0.875 -1.09375,0.76562 -1.09375,2.17187 0,1.21875 0.73438,1.8125 0.75,0.57813 1.98437,0.57813 1.89063,0 3.09375,-1.04688 1.21875,-1.0625 1.21875,-3.17187 z m 22.07758,-7.5 q 2.35938,0 3.54688,1.23437 1.20312,1.23438 1.20312,3.95313 v 9.34375 h -2.14062 v -9.23438 q 0,-1.73437 -0.75,-2.59375 -0.73438,-0.875 -2.20313,-0.875 -2.07812,0 -3.01562,1.20313 -0.9375,1.1875 -0.9375,3.51562 v 7.98438 h -2.14063 v -9.23438 q 0,-1.17187 -0.34375,-1.9375 -0.32812,-0.76562 -0.98437,-1.14062 -0.65625,-0.39063 -1.65625,-0.39063 -1.42188,0 -2.28125,0.59375 -0.85938,0.57813 -1.25,1.73438 -0.375,1.14062 -0.375,2.82812 v 7.54688 h -2.15625 V 137.8986 h 1.73437 l 0.32813,2.01563 h 0.125 q 0.42187,-0.73438 1.07812,-1.23438 0.65625,-0.51562 1.45313,-0.78125 0.8125,-0.26562 1.71875,-0.26562 1.625,0 2.71875,0.60937 1.10937,0.60938 1.60937,1.84375 h 0.10938 q 0.70312,-1.23437 1.92187,-1.84375 1.23438,-0.60937 2.6875,-0.60937 z m 11.34973,0.26562 v 14.26563 h -2.15625 V 137.8986 Z m -1.04687,-5.34375 q 0.53125,0 0.90625,0.35938 0.39062,0.34375 0.39062,1.0625 0,0.71875 -0.39062,1.07812 -0.375,0.34375 -0.90625,0.34375 -0.5625,0 -0.9375,-0.34375 -0.375,-0.35937 -0.375,-1.07812 0,-0.71875 0.375,-1.0625 0.375,-0.35938 0.9375,-0.35938 z m 11.32287,19.875 q -1.92187,0 -3.39062,-0.79687 -1.46875,-0.79688 -2.29688,-2.42188 -0.8125,-1.625 -0.8125,-4.09375 0,-2.59375 0.85938,-4.23437 0.875,-1.65625 2.39062,-2.45313 1.53125,-0.79687 3.46875,-0.79687 1.0625,0 2.0625,0.21875 1,0.21875 1.625,0.54687 l -0.64062,1.79688 q -0.65625,-0.25 -1.51563,-0.45313 -0.84375,-0.21875 -1.59375,-0.21875 -1.46875,0 -2.45312,0.64063 -0.98438,0.64062 -1.48438,1.875 -0.48437,1.23437 -0.48437,3.04687 0,1.73438 0.46875,2.95313 0.48437,1.21875 1.42187,1.875 0.95313,0.64062 2.375,0.64062 1.125,0 2.03125,-0.23437 0.92188,-0.25 1.65625,-0.57813 v 1.92188 q -0.71875,0.375 -1.59375,0.5625 -0.875,0.20312 -2.09375,0.20312 z m 16.28406,-4.17187 q 0,1.375 -0.6875,2.3125 -0.67187,0.92187 -1.95312,1.39062 -1.26563,0.46875 -3.01563,0.46875 -1.5,0 -2.59375,-0.23437 -1.09375,-0.23438 -1.90625,-0.67188 v -1.98437 q 0.875,0.42187 2.07813,0.78125 1.21875,0.34375 2.46875,0.34375 1.85937,0 2.6875,-0.59375 0.82812,-0.59375 0.82812,-1.625 0,-0.59375 -0.32812,-1.03125 -0.32813,-0.45313 -1.10938,-0.875 -0.78125,-0.42188 -2.15625,-0.9375 -1.375,-0.51563 -2.375,-1.03125 -0.98437,-0.51563 -1.53125,-1.25 -0.54687,-0.75 -0.54687,-1.9375 0,-1.8125 1.46875,-2.78125 1.46875,-0.96875 3.84375,-0.96875 1.29687,0 2.42187,0.26562 1.125,0.25 2.09375,0.67188 l -0.71875,1.73437 q -0.89062,-0.375 -1.89062,-0.625 -1,-0.26562 -2.04688,-0.26562 -1.5,0 -2.29687,0.5 -0.79688,0.48437 -0.79688,1.34375 0,0.65625 0.35938,1.09375 0.375,0.42187 1.1875,0.8125 0.82812,0.375 2.17187,0.875 1.34375,0.5 2.3125,1.03125 0.98438,0.51562 1.5,1.26562 0.53125,0.75 0.53125,1.92188 z"
       fill-rule="nonzero"
       id="path203" />
    <path
       fill="#000000"
       d="m 717.63696,184.1643 h -7.96875 l 0.21875,-1.01563 q 0.57813,-0.26562 1.14063,-0.45312 0.5625,-0.1875 1.17187,-0.3125 l 2.34375,-11.14063 0.79688,-3.125 h -0.20313 l -1.46875,2.85938 -7.96875,13.1875 h -1.20312 l -2.375,-13.09375 -0.3125,-3.10938 h -0.25 l -0.6875,3.375 -2.29688,10.9375 q 0.48438,0.10938 1.04688,0.34375 0.57812,0.23438 1.03125,0.53125 l -0.20313,1.01563 h -6.48437 l 0.1875,-1.01563 q 0.45312,-0.23437 1.14062,-0.51562 0.70313,-0.28125 1.3125,-0.39063 l 3.14063,-14.95312 q -0.53125,-0.10938 -1.07813,-0.29688 -0.54687,-0.1875 -0.9375,-0.46875 l 0.20313,-1.01562 h 7.23437 l 1.67188,10.84375 0.21875,2.5625 h 0.0156 l 1.26563,-2.60938 6.54687,-10.79687 h 6.71875 l -0.20312,1.01562 q -0.48438,0.28125 -1.0625,0.46875 -0.57813,0.1875 -1.125,0.29688 l -3.20313,15.10937 q 0.53125,0.10938 1,0.32813 0.48438,0.21875 0.84375,0.42187 z"
       fill-rule="nonzero"
       id="path205" />
    <path
       fill="#000000"
       fill-opacity="0"
       d="M 850.09973,83.09974 H 966.54065 V 189.74541 H 850.09973 Z"
       fill-rule="evenodd"
       id="path207" />
    <path
       fill="#000000"
       d="m 883.0589,103.15286 q 0,2.20313 -0.5625,4.01563 -0.5625,1.79687 -1.67188,3.09375 -1.09375,1.29687 -2.71875,2 -1.625,0.70312 -3.76562,0.70312 -2.21875,0 -3.875,-0.70312 -1.64063,-0.70313 -2.73438,-2 -1.07812,-1.3125 -1.625,-3.10938 -0.53125,-1.8125 -0.53125,-4.01562 0,-2.92188 0.95313,-5.10938 0.96875,-2.203125 2.92187,-3.421875 1.96875,-1.234375 4.92188,-1.234375 2.82812,0 4.75,1.21875 1.9375,1.203125 2.9375,3.40625 1,2.1875 1,5.15625 z m -15.15625,0 q 0,2.42188 0.6875,4.20313 0.70312,1.76562 2.125,2.73437 1.42187,0.95313 3.625,0.95313 2.20312,0 3.60937,-0.95313 1.42188,-0.96875 2.09375,-2.73437 0.6875,-1.78125 0.6875,-4.20313 0,-3.671875 -1.54687,-5.75 -1.54688,-2.078125 -4.8125,-2.078125 -2.20313,0 -3.64063,0.953125 -1.4375,0.953125 -2.14062,2.703125 -0.6875,1.750005 -0.6875,4.171875 z m 30.84344,-4.71875 v 14.26563 h -1.78125 l -0.3125,-2 h -0.10937 q -0.4375,0.73437 -1.14063,1.25 -0.70312,0.5 -1.59375,0.75 -0.875,0.26562 -1.85937,0.26562 -1.6875,0 -2.84375,-0.54687 -1.14063,-0.54688 -1.71875,-1.6875 -0.57813,-1.15625 -0.57813,-2.95313 v -9.34375 h 2.1875 v 9.1875 q 0,1.78125 0.79688,2.67188 0.8125,0.875 2.46875,0.875 1.57812,0 2.51562,-0.59375 0.95313,-0.60938 1.375,-1.76563 0.42188,-1.17187 0.42188,-2.85937 v -7.51563 z m 9.17591,12.75 q 0.53125,0 1.07812,-0.0781 0.5625,-0.0937 0.92188,-0.23438 v 1.6875 q -0.375,0.17188 -1.04688,0.28125 -0.67187,0.125 -1.3125,0.125 -1.125,0 -2.0625,-0.39062 -0.92187,-0.40625 -1.46875,-1.35938 -0.54687,-0.95312 -0.54687,-2.625 v -8.46875 h -2.03125 v -1.046875 l 2.03125,-0.84375 0.85937,-3.109375 h 1.3125 v 3.3125 h 4.17188 v 1.6875 h -4.17188 v 8.40625 q 0,1.32813 0.60938,2 0.625,0.65625 1.65625,0.65625 z m 11.59527,-13.015625 q 2.67188,0 4.25,1.843755 1.59375,1.82812 1.59375,5.51562 0,2.4375 -0.73437,4.09375 -0.73438,1.64063 -2.0625,2.5 -1.3125,0.84375 -3.10938,0.84375 -1.125,0 -1.98437,-0.29687 -0.85938,-0.3125 -1.46875,-0.8125 -0.60938,-0.51563 -1.01563,-1.10938 h -0.15625 q 0.0312,0.51563 0.0937,1.23438 0.0625,0.70312 0.0625,1.23437 v 5.85938 H 912.8141 V 98.43411 h 1.78125 l 0.28125,2.10938 h 0.10937 q 0.42188,-0.656255 1.01563,-1.187505 0.59375,-0.546875 1.45312,-0.859375 0.875,-0.328125 2.0625,-0.328125 z m -0.375,1.828125 q -1.48437,0 -2.39062,0.57813 -0.90625,0.5625 -1.32813,1.70312 -0.40625,1.14063 -0.4375,2.85938 v 0.42187 q 0,1.79688 0.39063,3.04688 0.40625,1.25 1.3125,1.90625 0.92187,0.65625 2.46875,0.65625 1.32812,0 2.21875,-0.71875 0.89062,-0.71875 1.3125,-2 0.4375,-1.28125 0.4375,-2.95313 0,-2.51562 -0.98438,-4 -0.96875,-1.5 -3,-1.5 z m 21.76184,-1.5625 v 14.26563 h -1.78125 l -0.3125,-2 h -0.10937 q -0.4375,0.73437 -1.14063,1.25 -0.70312,0.5 -1.59375,0.75 -0.875,0.26562 -1.85937,0.26562 -1.6875,0 -2.84375,-0.54687 -1.14063,-0.54688 -1.71875,-1.6875 -0.57813,-1.15625 -0.57813,-2.95313 v -9.34375 h 2.1875 v 9.1875 q 0,1.78125 0.79688,2.67188 0.8125,0.875 2.46875,0.875 1.57812,0 2.51562,-0.59375 0.95313,-0.60938 1.375,-1.76563 0.42188,-1.17187 0.42188,-2.85937 v -7.51563 z m 9.17591,12.75 q 0.53125,0 1.07812,-0.0781 0.5625,-0.0937 0.92188,-0.23438 v 1.6875 q -0.375,0.17188 -1.04688,0.28125 -0.67187,0.125 -1.3125,0.125 -1.125,0 -2.0625,-0.39062 -0.92187,-0.40625 -1.46875,-1.35938 -0.54687,-0.95312 -0.54687,-2.625 v -8.46875 h -2.03125 v -1.046875 l 2.03125,-0.84375 0.85937,-3.109375 h 1.3125 v 3.3125 h 4.17188 v 1.6875 h -4.17188 v 8.40625 q 0,1.32813 0.60938,2 0.625,0.65625 1.65625,0.65625 z"
       fill-rule="nonzero"
       id="path209" />
    <path
       fill="#000000"
       d="m 877.222,127.35599 q -1.57813,0 -2.82813,0.54688 -1.25,0.53125 -2.14062,1.5625 -0.875,1.01562 -1.34375,2.45312 -0.46875,1.4375 -0.46875,3.25 0,2.40625 0.75,4.17188 0.75,1.75 2.23437,2.71875 1.5,0.96875 3.73438,0.96875 1.28125,0 2.40625,-0.21875 1.125,-0.21875 2.1875,-0.54688 v 1.9375 q -1.04688,0.39063 -2.1875,0.57813 -1.14063,0.1875 -2.71875,0.1875 -2.90625,0 -4.85938,-1.20313 -1.9375,-1.20312 -2.90625,-3.40625 -0.96875,-2.20312 -0.96875,-5.20312 0,-2.15625 0.60938,-3.9375 0.60937,-1.79688 1.76562,-3.09375 1.17188,-1.3125 2.85938,-2.01563 1.70312,-0.70312 3.90625,-0.70312 1.4375,0 2.78125,0.28125 1.34375,0.28125 2.42187,0.8125 l -0.89062,1.875 q -0.90625,-0.40625 -2,-0.70313 -1.07813,-0.3125 -2.34375,-0.3125 z m 20.11841,3.07813 v 14.26562 h -1.78125 l -0.3125,-2 h -0.10938 q -0.4375,0.73438 -1.14062,1.25 -0.70313,0.5 -1.59375,0.75 -0.875,0.26563 -1.85938,0.26563 -1.6875,0 -2.84375,-0.54688 -1.14062,-0.54687 -1.71875,-1.6875 -0.57812,-1.15625 -0.57812,-2.95312 v -9.34375 h 2.1875 v 9.1875 q 0,1.78125 0.79687,2.67187 0.8125,0.875 2.46875,0.875 1.57813,0 2.51563,-0.59375 0.95312,-0.60937 1.375,-1.76562 0.42187,-1.17188 0.42187,-2.85938 v -7.51562 z m 11.0509,-0.26563 q 0.42188,0 0.89063,0.0469 0.46875,0.0469 0.82812,0.125 l -0.26562,2 q -0.35938,-0.0781 -0.79688,-0.125 -0.42187,-0.0625 -0.79687,-0.0625 -0.85938,0 -1.625,0.34375 -0.75,0.34375 -1.32813,1 -0.5625,0.64062 -0.89062,1.54687 -0.32813,0.89063 -0.32813,2 v 7.65625 h -2.17187 v -14.26562 h 1.79687 l 0.23438,2.625 h 0.0937 q 0.4375,-0.79688 1.0625,-1.45313 0.625,-0.65625 1.45312,-1.04687 0.82813,-0.39063 1.84375,-0.39063 z m 13.62854,10.625 q 0,1.375 -0.6875,2.3125 -0.67187,0.92188 -1.95312,1.39063 -1.26563,0.46875 -3.01563,0.46875 -1.5,0 -2.59375,-0.23438 -1.09375,-0.23437 -1.90625,-0.67187 v -1.98438 q 0.875,0.42188 2.07813,0.78125 1.21875,0.34375 2.46875,0.34375 1.85937,0 2.6875,-0.59375 0.82812,-0.59375 0.82812,-1.625 0,-0.59375 -0.32812,-1.03125 -0.32813,-0.45312 -1.10938,-0.875 -0.78125,-0.42187 -2.15625,-0.9375 -1.375,-0.51562 -2.375,-1.03125 -0.98437,-0.51562 -1.53125,-1.25 -0.54687,-0.75 -0.54687,-1.9375 0,-1.8125 1.46875,-2.78125 1.46875,-0.96875 3.84375,-0.96875 1.29687,0 2.42187,0.26563 1.125,0.25 2.09375,0.67187 l -0.71875,1.73438 q -0.89062,-0.375 -1.89062,-0.625 -1,-0.26563 -2.04688,-0.26563 -1.5,0 -2.29687,0.5 -0.79688,0.48438 -0.79688,1.34375 0,0.65625 0.35938,1.09375 0.375,0.42188 1.1875,0.8125 0.82812,0.375 2.17187,0.875 1.34375,0.5 2.3125,1.03125 0.98438,0.51563 1.5,1.26563 0.53125,0.75 0.53125,1.92187 z m 15.78149,-3.25 q 0,1.75 -0.45312,3.14063 -0.45313,1.375 -1.3125,2.32812 -0.85938,0.95313 -2.07813,1.45313 -1.21875,0.5 -2.75,0.5 -1.4375,0 -2.625,-0.5 -1.1875,-0.5 -2.0625,-1.45313 -0.85937,-0.95312 -1.34375,-2.32812 -0.46875,-1.39063 -0.46875,-3.14063 0,-2.34375 0.79688,-3.98437 0.79687,-1.65625 2.26562,-2.51563 1.48438,-0.875 3.51563,-0.875 1.95312,0 3.42187,0.875 1.46875,0.875 2.28125,2.53125 0.8125,1.64063 0.8125,3.96875 z m -10.85937,0 q 0,1.71875 0.45312,2.98438 0.46875,1.25 1.40625,1.95312 0.95313,0.6875 2.45313,0.6875 1.48437,0 2.4375,-0.6875 0.95312,-0.70312 1.40625,-1.95312 0.46875,-1.26563 0.46875,-2.98438 0,-1.70312 -0.46875,-2.9375 -0.45313,-1.25 -1.40625,-1.92187 -0.9375,-0.6875 -2.45313,-0.6875 -2.21875,0 -3.26562,1.46875 -1.03125,1.46875 -1.03125,4.07812 z m 21.08227,-7.375 q 0.42188,0 0.89063,0.0469 0.46875,0.0469 0.82812,0.125 l -0.26562,2 q -0.35938,-0.0781 -0.79688,-0.125 -0.42187,-0.0625 -0.79687,-0.0625 -0.85938,0 -1.625,0.34375 -0.75,0.34375 -1.32813,1 -0.5625,0.64062 -0.89062,1.54687 -0.32813,0.89063 -0.32813,2 v 7.65625 h -2.17187 v -14.26562 h 1.79687 l 0.23438,2.625 h 0.0937 q 0.4375,-0.79688 1.0625,-1.45313 0.625,-0.65625 1.45312,-1.04687 0.82813,-0.39063 1.84375,-0.39063 z"
       fill-rule="nonzero"
       id="path211" />
    <path
       fill="#000000"
       d="m 903.7513,165.26224 -1.70312,-0.21875 v -0.90625 q 0.125,-0.0937 0.51562,-0.26563 0.40625,-0.1875 0.95313,-0.35937 0.54687,-0.1875 1.15625,-0.3125 0.625,-0.14063 1.20312,-0.14063 0.71875,0 1.125,0.34375 0.40625,0.34375 0.53125,0.95313 l 2.04688,8.07812 0.14062,1.59375 h 0.0469 l 0.5625,-1.5625 q 0.53125,-1.28125 1.03125,-2.76562 0.51562,-1.48438 0.8125,-2.75 0,-0.29688 -0.0937,-0.8125 -0.0937,-0.53125 -0.20313,-1.07813 -0.10937,-0.54687 -0.21875,-1 -0.0937,-0.46875 -0.15625,-0.64062 0.375,-0.15625 0.9375,-0.23438 0.5625,-0.0781 1.125,-0.0781 0.54688,0 1.03125,0.0781 0.48438,0.0781 0.78125,0.23438 -0.70312,3.17187 -2.125,6.59375 -1.42187,3.40625 -3.29687,6.6875 -1.54688,2.75 -3.07813,4.15625 -1.53125,1.42187 -3.53125,1.42187 -0.5625,0 -1.03125,-0.15625 -0.45312,-0.14062 -0.82812,-0.39062 -0.0781,-0.35938 0.0625,-0.875 0.125,-0.5 0.375,-0.98438 0.25,-0.48437 0.59375,-0.89062 0.35937,-0.39063 0.71875,-0.51563 l 2,1.40625 q 0.1875,-0.14062 0.48437,-0.39062 0.29688,-0.25 0.57813,-0.64063 0.29687,-0.375 0.59375,-0.92187 0.29687,-0.53125 0.53125,-1.21875 z"
       fill-rule="nonzero"
       id="path213" />
    <path
       fill="#000000"
       fill-opacity="0"
       d="m 477.22833,6.217848 h 179.90552 v 74.3307 H 477.22833 Z"
       fill-rule="evenodd"
       id="path215" />
    <path
       fill="#000000"
       d="m 509.53867,26.114721 q 0,3.21875 -1.17187,5.375 -1.17188,2.156248 -3.39063,3.249998 -2.21875,1.078125 -5.39062,1.078125 H 494.4293 V 16.786596 h 5.73437 q 2.90625,0 5,1.0625 2.09375,1.0625 3.23438,3.140625 1.14062,2.078125 1.14062,5.125 z m -2.32812,0.07813 q 0,-2.5625 -0.85938,-4.21875 -0.85937,-1.671875 -2.5,-2.484375 -1.64062,-0.8125 -4.03125,-0.8125 h -3.1875 v 15.234373 h 2.70313 q 3.92187,0 5.89062,-1.937498 1.98438,-1.9375 1.98438,-5.78125 z m 8.38827,-4.640625 v 14.265623 h -2.15625 V 21.552221 Z m -1.04687,-5.34375 q 0.53125,0 0.90625,0.359375 0.39062,0.34375 0.39062,1.0625 0,0.71875 -0.39062,1.078125 -0.375,0.34375 -0.90625,0.34375 -0.5625,0 -0.9375,-0.34375 -0.375,-0.359375 -0.375,-1.078125 0,-0.71875 0.375,-1.0625 0.375,-0.359375 0.9375,-0.359375 z m 14.8385,15.703125 q 0,1.374998 -0.6875,2.312498 -0.67188,0.921875 -1.95313,1.390625 -1.26562,0.46875 -3.01562,0.46875 -1.5,0 -2.59375,-0.234375 -1.09375,-0.234375 -1.90625,-0.671875 v -1.984375 q 0.875,0.421875 2.07812,0.78125 1.21875,0.34375 2.46875,0.34375 1.85938,0 2.6875,-0.59375 0.82813,-0.59375 0.82813,-1.625 0,-0.593748 -0.32813,-1.031248 -0.32812,-0.453125 -1.10937,-0.875 -0.78125,-0.421875 -2.15625,-0.9375 -1.375,-0.515625 -2.375,-1.03125 -0.98438,-0.515625 -1.53125,-1.25 -0.54688,-0.75 -0.54688,-1.9375 0,-1.8125 1.46875,-2.78125 1.46875,-0.96875 3.84375,-0.96875 1.29688,0 2.42188,0.265625 1.125,0.25 2.09375,0.671875 l -0.71875,1.734375 q -0.89063,-0.375 -1.89063,-0.625 -1,-0.265625 -2.04687,-0.265625 -1.5,0 -2.29688,0.5 -0.79687,0.484375 -0.79687,1.34375 0,0.65625 0.35937,1.09375 0.375,0.421875 1.1875,0.8125 0.82813,0.375 2.17188,0.875 1.34375,0.5 2.3125,1.03125 0.98437,0.515625 1.5,1.265625 0.53125,0.75 0.53125,1.921875 z m 8.09399,2.390623 q 0.53125,0 1.07812,-0.07813 0.5625,-0.09375 0.92188,-0.234375 v 1.6875 q -0.375,0.171875 -1.04688,0.28125 -0.67187,0.125 -1.3125,0.125 -1.125,0 -2.0625,-0.390625 -0.92187,-0.40625 -1.46875,-1.359375 -0.54687,-0.953125 -0.54687,-2.624998 v -8.46875 h -2.03125 v -1.046875 l 2.03125,-0.84375 0.85937,-3.109375 h 1.3125 v 3.3125 h 4.17188 v 1.6875 h -4.17188 v 8.40625 q 0,1.328123 0.60938,1.999998 0.625,0.65625 1.65625,0.65625 z m 16.6734,-12.749998 v 14.265623 h -1.78125 l -0.3125,-2 h -0.10938 q -0.4375,0.734375 -1.14062,1.25 -0.70313,0.5 -1.59375,0.75 -0.875,0.265625 -1.85938,0.265625 -1.6875,0 -2.84375,-0.546875 -1.14062,-0.546875 -1.71875,-1.6875 -0.57812,-1.15625 -0.57812,-2.953123 v -9.34375 h 2.1875 v 9.1875 q 0,1.781248 0.79687,2.671873 0.8125,0.875 2.46875,0.875 1.57813,0 2.51563,-0.59375 0.95312,-0.609375 1.375,-1.765623 0.42187,-1.171875 0.42187,-2.859375 v -7.515625 z m 11.0509,-0.265625 q 0.42188,0 0.89063,0.04687 0.46875,0.04687 0.82812,0.125 l -0.26562,2 q -0.35938,-0.07813 -0.79688,-0.125 -0.42187,-0.0625 -0.79687,-0.0625 -0.85938,0 -1.625,0.34375 -0.75,0.34375 -1.32813,1 -0.5625,0.640625 -0.89062,1.546875 -0.32813,0.890625 -0.32813,2 v 7.656248 h -2.17187 V 21.552221 h 1.79687 l 0.23438,2.625 h 0.0937 q 0.4375,-0.796875 1.0625,-1.453125 0.625,-0.65625 1.45312,-1.046875 0.82813,-0.390625 1.84375,-0.390625 z m 6.56604,-5.71875 v 5.0625 q 0,0.875 -0.0469,1.703125 -0.0469,0.8125 -0.0625,1.265625 h 0.10937 q 0.59375,-0.96875 1.6875,-1.625 1.10938,-0.671875 2.82813,-0.671875 2.6875,0 4.28125,1.859375 1.59375,1.859375 1.59375,5.515625 0,2.40625 -0.73438,4.062498 -0.73437,1.640625 -2.0625,2.5 -1.3125,0.84375 -3.125,0.84375 -1.70312,0 -2.79687,-0.625 -1.07813,-0.640625 -1.65625,-1.546875 h -0.17188 l -0.4375,1.90625 h -1.5625 V 15.567846 Z m 4.17188,7.546875 q -1.5625,0 -2.46875,0.609375 -0.90625,0.59375 -1.3125,1.8125 -0.39063,1.21875 -0.39063,3.078125 v 0.125 q 0,2.6875 0.89063,4.124998 0.90625,1.421875 3.28125,1.421875 1.98437,0 2.98437,-1.453125 1,-1.468748 1,-4.171873 0,-2.765625 -0.98437,-4.15625 -0.98438,-1.390625 -3,-1.390625 z m 15.30871,-1.796875 q 2.5625,0 3.79688,1.15625 1.23437,1.140625 1.23437,3.640625 v 9.703123 h -1.57812 l -0.42188,-2.109375 h -0.0937 q -0.60937,0.78125 -1.26562,1.3125 -0.64063,0.53125 -1.5,0.796875 -0.84375,0.265625 -2.07813,0.265625 -1.29687,0 -2.3125,-0.453125 -1.01562,-0.46875 -1.59375,-1.390625 -0.57812,-0.921875 -0.57812,-2.343748 0,-2.125 1.6875,-3.265625 1.70312,-1.15625 5.15625,-1.265625 l 2.46875,-0.09375 v -0.875 q 0,-1.84375 -0.79688,-2.578125 -0.79687,-0.75 -2.23437,-0.75 -1.125,0 -2.14063,0.328125 -1.01562,0.3125 -1.92187,0.765625 l -0.67188,-1.640625 q 0.96875,-0.5 2.21875,-0.84375 1.25,-0.359375 2.625,-0.359375 z m 2.89063,7.46875 -2.17188,0.09375 q -2.67187,0.109375 -3.76562,0.875 -1.09375,0.765625 -1.09375,2.171875 0,1.218748 0.73437,1.812498 0.75,0.578125 1.98438,0.578125 1.89062,0 3.09375,-1.046875 1.21875,-1.0625 1.21875,-3.171873 z m 13.3432,-7.5 q 2.54687,0 3.84375,1.25 1.29687,1.234375 1.29687,3.984375 v 9.296873 h -2.125 v -9.156248 q 0,-1.78125 -0.82812,-2.65625 -0.8125,-0.890625 -2.48438,-0.890625 -2.375,0 -3.34375,1.34375 -0.95312,1.34375 -0.95312,3.890625 v 7.468748 H 600.7392 V 21.552221 h 1.73437 l 0.32813,2.0625 h 0.125 q 0.45312,-0.765625 1.15625,-1.265625 0.70312,-0.515625 1.5625,-0.78125 0.875,-0.28125 1.84375,-0.28125 z m 15.3009,14.796873 q -1.92187,0 -3.39062,-0.796875 -1.46875,-0.796875 -2.29688,-2.421875 -0.8125,-1.624998 -0.8125,-4.093748 0,-2.59375 0.85938,-4.234375 0.875,-1.65625 2.39062,-2.453125 1.53125,-0.796875 3.46875,-0.796875 1.0625,0 2.0625,0.21875 1,0.21875 1.625,0.546875 l -0.64062,1.796875 q -0.65625,-0.25 -1.51563,-0.453125 -0.84375,-0.21875 -1.59375,-0.21875 -1.46875,0 -2.45312,0.640625 -0.98438,0.640625 -1.48438,1.875 -0.48437,1.234375 -0.48437,3.046875 0,1.734375 0.46875,2.953125 0.48437,1.218748 1.42187,1.874998 0.95313,0.640625 2.375,0.640625 1.125,0 2.03125,-0.234375 0.92188,-0.25 1.65625,-0.578125 v 1.921875 q -0.71875,0.375 -1.59375,0.5625 -0.875,0.203125 -2.09375,0.203125 z m 12.54969,-14.796873 q 1.82812,0 3.125,0.8125 1.3125,0.8125 2,2.265625 0.6875,1.4375 0.6875,3.390625 v 1.328125 h -9.85938 q 0.0469,2.515625 1.25,3.828123 1.21875,1.3125 3.40625,1.3125 1.35938,0 2.39063,-0.234375 1.04687,-0.25 2.17187,-0.734375 v 1.90625 q -1.07812,0.46875 -2.14062,0.6875 -1.0625,0.234375 -2.5,0.234375 -2.0625,0 -3.59375,-0.84375 -1.53125,-0.84375 -2.375,-2.46875 -0.84375,-1.624998 -0.84375,-3.984373 0,-2.296875 0.76562,-3.984375 0.78125,-1.6875 2.1875,-2.59375 1.42188,-0.921875 3.32813,-0.921875 z m -0.0156,1.78125 q -1.73437,0 -2.76562,1.140625 -1.03125,1.125 -1.21875,3.15625 h 7.54687 q -0.0156,-1.28125 -0.40625,-2.25 -0.375,-0.96875 -1.15625,-1.5 -0.78125,-0.546875 -2,-0.546875 z"
       fill-rule="nonzero"
       id="path217" />
    <path
       fill="#000000"
       d="m 565.3185,66.00535 q 0.5625,0 1.10937,-0.46875 0.54688,-0.46875 1.03125,-1.15625 0.5,-0.687504 0.90625,-1.484379 0.42188,-0.8125 0.70313,-1.46875 l 0.96875,-5.265625 q -0.34375,-0.203125 -0.65625,-0.296875 -0.3125,-0.09375 -0.73438,-0.09375 -1.01562,0 -1.85937,0.6875 -0.82813,0.671875 -1.42188,1.78125 -0.57812,1.09375 -0.90625,2.53125 -0.3125,1.421875 -0.3125,2.921875 0,2.312504 1.17188,2.312504 z m 3.32812,-2.421879 q -0.40625,0.921879 -0.95312,1.750004 -0.53125,0.828125 -1.1875,1.453125 -0.65625,0.609375 -1.4375,0.984375 -0.76563,0.359375 -1.625,0.359375 -1.35938,0 -2.23438,-1.03125 -0.85937,-1.046875 -0.85937,-3.140629 0,-1.890625 0.51562,-3.640625 0.53125,-1.75 1.53125,-3.09375 1,-1.34375 2.45313,-2.15625 1.45312,-0.8125 3.3125,-0.8125 0.89062,0 1.29687,0.109375 0.42188,0.09375 0.875,0.3125 l 0.90625,-4.6875 -1.84375,-0.34375 v -0.90625 q 0.39063,-0.171875 1.07813,-0.328125 0.70312,-0.15625 1.48437,-0.28125 0.79688,-0.140625 1.54688,-0.234375 0.76562,-0.09375 1.25,-0.125 l 0.53125,0.296875 -3.4375,17.906254 h 1.92187 v 0.90625 q -0.26562,0.21875 -0.71875,0.4375 -0.4375,0.203125 -0.95312,0.375 -0.51563,0.15625 -1.07813,0.25 -0.5625,0.109375 -1.04687,0.109375 -0.92188,0 -1.32813,-0.421875 -0.40625,-0.421875 -0.40625,-0.875 0,-0.453125 0.14063,-1.296875 0.14062,-0.859375 0.375,-1.875004 z"
       fill-rule="nonzero"
       id="path219" />
    <path
       fill="#000000"
       fill-opacity="0"
       d="M 121.58536,54.769028 H 330.78224 V 129.09973 H 121.58537 Z"
       fill-rule="evenodd"
       id="path221" />
    <path
       fill="#351c75"
       d="m 150.65654,84.369026 h -4.01563 v -8.21875 h -7.53125 v 8.21875 h -4.04687 v -19.03125 h 4.04687 v 7.453125 h 7.53125 v -7.453125 h 4.01563 z m 17.8488,-14.546875 v 14.546875 h -3.04687 l -0.53125,-1.859375 h -0.20313 q -0.46875,0.734375 -1.17187,1.203125 -0.70313,0.46875 -1.5625,0.6875 -0.84375,0.234375 -1.75,0.234375 -1.5625,0 -2.71875,-0.546875 -1.15625,-0.5625 -1.8125,-1.734375 -0.64063,-1.171875 -0.64063,-3.046875 v -9.484375 h 3.96875 v 8.5 q 0,1.5625 0.5625,2.359375 0.5625,0.78125 1.78125,0.78125 1.21875,0 1.90625,-0.546875 0.6875,-0.5625 0.96875,-1.625 0.28125,-1.078125 0.28125,-2.625 v -6.84375 z m 21.25357,-0.28125 q 2.46875,0 3.73438,1.28125 1.28125,1.265625 1.28125,4.0625 v 9.484375 h -3.98438 v -8.5 q 0,-1.5625 -0.53125,-2.359375 -0.53125,-0.796875 -1.65625,-0.796875 -1.57812,0 -2.25,1.140625 -0.65625,1.125 -0.65625,3.21875 v 7.296875 h -3.96875 v -8.5 q 0,-1.046875 -0.23437,-1.75 -0.23438,-0.703125 -0.71875,-1.046875 -0.48438,-0.359375 -1.23438,-0.359375 -1.10937,0 -1.73437,0.5625 -0.625,0.546875 -0.90625,1.625 -0.26563,1.078125 -0.26563,2.625 v 6.84375 h -3.96875 V 69.822151 h 3.03125 l 0.54688,1.859375 h 0.21875 q 0.4375,-0.75 1.10937,-1.21875 0.67188,-0.46875 1.46875,-0.6875 0.8125,-0.234375 1.64063,-0.234375 1.60937,0 2.71875,0.53125 1.10937,0.515625 1.71875,1.609375 h 0.34375 q 0.65625,-1.125 1.84375,-1.625 1.1875,-0.515625 2.45312,-0.515625 z m 15.04967,-0.01563 q 2.92187,0 4.48437,1.28125 1.5625,1.265625 1.5625,3.859375 v 9.703125 h -2.76562 l -0.76563,-1.984375 h -0.10937 q -0.625,0.78125 -1.28125,1.28125 -0.64063,0.5 -1.5,0.734375 -0.84375,0.234375 -2.04688,0.234375 -1.29687,0 -2.3125,-0.5 -1.01562,-0.5 -1.60937,-1.515625 -0.57813,-1.015625 -0.57813,-2.59375 0,-2.328125 1.625,-3.421875 1.625,-1.09375 4.875,-1.21875 l 2.53125,-0.07813 v -0.640625 q 0,-1.140625 -0.60937,-1.671875 -0.59375,-0.53125 -1.65625,-0.53125 -1.0625,0 -2.07813,0.296875 -1.01562,0.296875 -2.03125,0.75 l -1.3125,-2.671875 q 1.15625,-0.609375 2.59375,-0.953125 1.45313,-0.359375 2.98438,-0.359375 z m 2.10937,8.109375 -1.54687,0.04687 q -1.92188,0.04687 -2.67188,0.6875 -0.75,0.640625 -0.75,1.671875 0,0.921875 0.53125,1.3125 0.54688,0.375 1.40625,0.375 1.26563,0 2.14063,-0.75 0.89062,-0.765625 0.89062,-2.15625 z m 16.28798,-8.09375 q 2.32813,0 3.75,1.28125 1.42188,1.265625 1.42188,4.0625 v 9.484375 h -3.96875 v -8.5 q 0,-1.5625 -0.57813,-2.359375 -0.5625,-0.796875 -1.76562,-0.796875 -1.82813,0 -2.5,1.25 -0.65625,1.234375 -0.65625,3.5625 v 6.84375 h -3.96875 v -14.54687 h 3.03125 l 0.54687,1.859375 h 0.21875 q 0.46875,-0.75 1.15625,-1.21875 0.70313,-0.46875 1.54688,-0.6875 0.85937,-0.234375 1.76562,-0.234375 z m 24.55295,14.828125 -4.57812,-14.921875 h -0.125 q 0.0312,0.53125 0.0781,1.609375 0.0625,1.0625 0.10938,2.28125 0.0625,1.203125 0.0625,2.1875 v 8.84375 h -3.60938 v -19.03125 h 5.5 l 4.5,14.546875 h 0.0781 l 4.78125,-14.546875 h 5.48437 v 19.03125 h -3.75 v -9 q 0,-0.90625 0.0312,-2.078125 0.0312,-1.171875 0.0781,-2.234375 0.0469,-1.0625 0.0781,-1.59375 h -0.10937 l -4.92188,14.90625 z m 29.99277,-7.296875 q 0,1.8125 -0.5,3.21875 -0.48438,1.40625 -1.42188,2.375 -0.92187,0.96875 -2.23437,1.46875 -1.29688,0.5 -2.9375,0.5 -1.54688,0 -2.82813,-0.5 -1.28125,-0.5 -2.23437,-1.46875 -0.9375,-0.96875 -1.45313,-2.375 -0.5,-1.40625 -0.5,-3.21875 0,-2.421875 0.85938,-4.09375 0.85937,-1.6875 2.4375,-2.5625 1.59375,-0.875 3.79687,-0.875 2.03125,0 3.60938,0.875 1.59375,0.875 2.5,2.5625 0.90625,1.671875 0.90625,4.09375 z m -10.0625,0 q 0,1.421875 0.3125,2.40625 0.3125,0.96875 0.96875,1.46875 0.67187,0.5 1.73437,0.5 1.04688,0 1.70313,-0.5 0.67187,-0.5 0.96875,-1.46875 0.3125,-0.984375 0.3125,-2.40625 0,-1.453125 -0.3125,-2.40625 -0.29688,-0.953125 -0.96875,-1.4375 -0.65625,-0.484375 -1.73438,-0.484375 -1.5625,0 -2.28125,1.078125 -0.70312,1.078125 -0.70312,3.25 z m 17.94146,7.5625 q -2.4375,0 -3.96875,-1.90625 -1.51562,-1.90625 -1.51562,-5.609375 0,-3.734375 1.54687,-5.65625 1.54688,-1.921875 4.04688,-1.921875 1.03125,0 1.82812,0.296875 0.79688,0.28125 1.375,0.765625 0.57813,0.46875 0.98438,1.078125 h 0.125 q -0.0781,-0.421875 -0.1875,-1.234375 -0.10938,-0.8125 -0.10938,-1.671875 v -4.65625 h 3.98438 v 20.25 h -3.04688 l -0.76562,-1.890625 h -0.17188 q -0.375,0.609375 -0.9375,1.09375 -0.5625,0.484375 -1.34375,0.78125 -0.78125,0.28125 -1.84375,0.28125 z m 1.39063,-3.171875 q 1.625,0 2.29687,-0.96875 0.67188,-0.96875 0.71875,-2.921875 v -0.421875 q 0,-2.125 -0.65625,-3.25 -0.65625,-1.125 -2.42187,-1.125 -1.3125,0 -2.0625,1.140625 -0.73438,1.125 -0.73438,3.25 0,2.140625 0.75,3.21875 0.75,1.078125 2.10938,1.078125 z m 16.86841,-11.921875 q 2.01562,0 3.46875,0.78125 1.46875,0.765625 2.26562,2.25 0.79688,1.46875 0.79688,3.578125 v 1.9375 h -9.39063 q 0.0625,1.671875 1,2.640625 0.95313,0.953125 2.625,0.953125 1.40625,0 2.5625,-0.28125 1.15625,-0.296875 2.375,-0.875 v 3.078125 q -1.07812,0.53125 -2.26562,0.78125 -1.17188,0.25 -2.84375,0.25 -2.1875,0 -3.875,-0.8125 -1.6875,-0.8125 -2.64063,-2.453125 -0.95312,-1.65625 -0.95312,-4.171875 0,-2.546875 0.85937,-4.25 0.85938,-1.703125 2.40625,-2.546875 1.5625,-0.859375 3.60938,-0.859375 z m 0.0312,2.828125 q -1.15625,0 -1.92188,0.75 -0.76562,0.734375 -0.875,2.328125 h 5.5625 q 0,-0.890625 -0.3125,-1.578125 -0.3125,-0.6875 -0.92187,-1.09375 -0.59375,-0.40625 -1.53125,-0.40625 z m 13.68655,12 h -3.96875 v -20.25 h 3.96875 z"
       fill-rule="nonzero"
       id="path223" />
    <path
       fill="#351c75"
       d="m 239.9672,97.900276 -0.21875,0.953125 q -0.40625,0.01563 -1.01563,0.125 -0.60937,0.109375 -0.92187,0.203125 -0.53125,0.15625 -0.79688,0.515625 -0.25,0.359379 -0.35937,0.812499 l -2.96875,12.92188 q -0.0625,0.21875 -0.0937,0.42187 -0.0312,0.1875 -0.0312,0.29688 0,0.57812 0.5,0.85937 0.5,0.28125 1.875,0.40625 l -0.21875,0.95313 h -9.98438 l 0.21875,-0.95313 q 0.34375,-0.0156 0.95313,-0.0625 0.625,-0.0625 0.90625,-0.17187 0.5,-0.17188 0.76562,-0.51563 0.28125,-0.34375 0.39063,-0.8125 l 1.46875,-6.46875 h -7.75 l -1.39063,6.04688 q -0.0469,0.21875 -0.0781,0.42187 -0.0312,0.1875 -0.0312,0.29688 0,0.57812 0.48437,0.85937 0.48438,0.26563 1.82813,0.40625 l -0.21875,0.95313 h -9.98438 l 0.21875,-0.95313 q 0.32813,-0.0156 0.96875,-0.0781 0.65625,-0.0781 0.96875,-0.17188 0.5,-0.17187 0.76563,-0.51562 0.26562,-0.35938 0.375,-0.8125 l 2.98437,-12.92188 q 0.0625,-0.26562 0.0781,-0.45312 0.0312,-0.1875 0.0312,-0.26563 0,-0.546874 -0.5625,-0.859374 -0.54688,-0.3125 -1.79688,-0.484375 l 0.23438,-0.953125 h 9.96875 l -0.21875,0.953125 q -0.39063,0.01563 -0.98438,0.125 -0.57812,0.109375 -0.89062,0.203125 -0.54688,0.15625 -0.79688,0.53125 -0.25,0.375004 -0.35937,0.796874 l -1.28125,5.60938 h 7.75 l 1.20312,-5.20313 q 0.0625,-0.26562 0.0781,-0.45312 0.0312,-0.1875 0.0312,-0.26563 0,-0.546874 -0.53125,-0.843749 -0.53125,-0.296875 -1.76563,-0.5 l 0.21875,-0.953125 z"
       fill-rule="nonzero"
       id="path225" />
    <path
       fill="#000000"
       fill-opacity="0"
       d="m 397.7469,105.47769 h 166.04724 v 74.3307 H 397.7469 Z"
       fill-rule="evenodd"
       id="path227" />
    <path
       fill="#000000"
       d="m 477.22833,80.548548 v 12.31249 q 0,2.01563 -0.8125,3.59375 -0.8125,1.57813 -2.45313,2.48438 -1.64062,0.90625 -4.10937,0.90625 -3.53125,0 -5.375,-1.90625 -1.84375,-1.92188 -1.84375,-5.125 v -12.26562 h 2.23437 v 12.32812 q 0,2.42187 1.28125,3.73437 1.28125,1.3125 3.82813,1.3125 1.75,0 2.85937,-0.625 1.10938,-0.64062 1.64063,-1.76562 0.54687,-1.14063 0.54687,-2.64063 v -12.34374 z m 13.93253,15.12499 q 0,1.375 -0.6875,2.3125 -0.67188,0.92188 -1.95313,1.39063 -1.26562,0.46875 -3.01562,0.46875 -1.5,0 -2.59375,-0.23438 -1.09375,-0.23437 -1.90625,-0.67187 v -1.98438 q 0.875,0.42188 2.07812,0.78125 1.21875,0.34375 2.46875,0.34375 1.85938,0 2.6875,-0.59375 0.82813,-0.59375 0.82813,-1.625 0,-0.59375 -0.32813,-1.03125 -0.32812,-0.45312 -1.10937,-0.875 -0.78125,-0.42187 -2.15625,-0.9375 -1.375,-0.51562 -2.375,-1.03124 -0.98438,-0.51563 -1.53125,-1.25 -0.54688,-0.75 -0.54688,-1.9375 0,-1.8125 1.46875,-2.78125 1.46875,-0.96875 3.84375,-0.96875 1.29688,0 2.42188,0.26562 1.125,0.25 2.09375,0.67188 l -0.71875,1.73437 q -0.89063,-0.375 -1.89063,-0.625 -1,-0.26562 -2.04687,-0.26562 -1.5,0 -2.29688,0.5 -0.79687,0.48437 -0.79687,1.34375 0,0.65625 0.35937,1.09375 0.375,0.42187 1.1875,0.8125 0.82813,0.375 2.17188,0.875 1.34375,0.5 2.3125,1.03125 0.98437,0.51562 1.5,1.26562 0.53125,0.75 0.53125,1.92187 z m 8.96899,-10.62499 q 1.82812,0 3.125,0.8125 1.3125,0.8125 2,2.26563 0.6875,1.4375 0.6875,3.39062 v 1.32812 h -9.85938 q 0.0469,2.51562 1.25,3.82812 1.21875,1.3125 3.40625,1.3125 1.35938,0 2.39063,-0.23437 1.04687,-0.25 2.17187,-0.73438 v 1.90625 q -1.07812,0.46875 -2.14062,0.6875 -1.0625,0.23438 -2.5,0.23438 -2.0625,0 -3.59375,-0.84375 -1.53125,-0.84375 -2.375,-2.46875 -0.84375,-1.625 -0.84375,-3.98438 0,-2.29686 0.76562,-3.98436 0.78125,-1.6875 2.1875,-2.59375 1.42188,-0.92188 3.32813,-0.92188 z m -0.0156,1.78125 q -1.73437,0 -2.76562,1.14063 -1.03125,1.125 -1.21875,3.15625 h 7.54687 q -0.0156,-1.28125 -0.40625,-2.25 -0.375,-0.96875 -1.15625,-1.5 -0.78125,-0.54688 -2,-0.54688 z m 15.98374,-1.78125 q 0.42187,0 0.89062,0.0469 0.46875,0.0469 0.82813,0.125 l -0.26563,2 q -0.35937,-0.0781 -0.79687,-0.125 -0.42188,-0.0625 -0.79688,-0.0625 -0.85937,0 -1.625,0.34375 -0.75,0.34375 -1.32812,1 -0.5625,0.64062 -0.89063,1.54687 -0.32812,0.89063 -0.32812,2 v 7.65624 h -2.17188 v -14.26561 h 1.79688 l 0.23437,2.625 h 0.0937 q 0.4375,-0.79688 1.0625,-1.45313 0.625,-0.65625 1.45313,-1.04687 0.82812,-0.39063 1.84375,-0.39063 z"
       fill-rule="nonzero"
       id="path229" />
    <path
       fill="#000000"
       d="m 458.63309,127.15792 v -19.03125 h 2.20312 v 19.03125 z m 13.86688,-14.53125 q 2.54688,0 3.84375,1.25 1.29688,1.23437 1.29688,3.98437 v 9.29688 h -2.125 v -9.15625 q 0,-1.78125 -0.82813,-2.65625 -0.8125,-0.89063 -2.48437,-0.89063 -2.375,0 -3.34375,1.34375 -0.95313,1.34375 -0.95313,3.89063 v 7.46875 h -2.15625 v -14.26563 h 1.73438 l 0.32812,2.0625 h 0.125 q 0.45313,-0.76562 1.15625,-1.26562 0.70313,-0.51563 1.5625,-0.78125 0.875,-0.28125 1.84375,-0.28125 z m 16.3009,0 q 2.67188,0 4.25,1.84375 1.59375,1.82812 1.59375,5.51562 0,2.4375 -0.73437,4.09375 -0.73438,1.64063 -2.0625,2.5 -1.3125,0.84375 -3.10938,0.84375 -1.125,0 -1.98437,-0.29687 -0.85938,-0.3125 -1.46875,-0.8125 -0.60938,-0.51563 -1.01563,-1.10938 h -0.15625 q 0.0312,0.51563 0.0937,1.23438 0.0625,0.70312 0.0625,1.23437 v 5.85938 h -2.17187 v -20.64063 h 1.78125 l 0.28125,2.10938 h 0.10937 q 0.42188,-0.65625 1.01563,-1.1875 0.59375,-0.54688 1.45312,-0.85938 0.875,-0.32812 2.0625,-0.32812 z m -0.375,1.82812 q -1.48437,0 -2.39062,0.57813 -0.90625,0.5625 -1.32813,1.70312 -0.40625,1.14063 -0.4375,2.85938 v 0.42187 q 0,1.79688 0.39063,3.04688 0.40625,1.25 1.3125,1.90625 0.92187,0.65625 2.46875,0.65625 1.32812,0 2.21875,-0.71875 0.89062,-0.71875 1.3125,-2 0.4375,-1.28125 0.4375,-2.95313 0,-2.51562 -0.98438,-4 -0.96875,-1.5 -3,-1.5 z m 21.76184,-1.5625 v 14.26563 h -1.78125 l -0.3125,-2 h -0.10937 q -0.4375,0.73437 -1.14063,1.25 -0.70312,0.5 -1.59375,0.75 -0.875,0.26562 -1.85937,0.26562 -1.6875,0 -2.84375,-0.54687 -1.14063,-0.54688 -1.71875,-1.6875 -0.57813,-1.15625 -0.57813,-2.95313 v -9.34375 h 2.1875 v 9.1875 q 0,1.78125 0.79688,2.67188 0.8125,0.875 2.46875,0.875 1.57812,0 2.51562,-0.59375 0.95313,-0.60938 1.375,-1.76563 0.42188,-1.17187 0.42188,-2.85937 v -7.51563 z m 9.17591,12.75 q 0.53125,0 1.07812,-0.0781 0.5625,-0.0937 0.92188,-0.23438 v 1.6875 q -0.375,0.17188 -1.04688,0.28125 -0.67187,0.125 -1.3125,0.125 -1.125,0 -2.0625,-0.39062 -0.92187,-0.40625 -1.46875,-1.35938 -0.54687,-0.95312 -0.54687,-2.625 v -8.46875 h -2.03125 v -1.04687 l 2.03125,-0.84375 0.85937,-3.10938 h 1.3125 v 3.3125 h 4.17188 v 1.6875 h -4.17188 v 8.40625 q 0,1.32813 0.60938,2 0.625,0.65625 1.65625,0.65625 z"
       fill-rule="nonzero"
       id="path231" />
    <path
       fill="#000000"
       d="m 494.97324,167.12425 v 0.90625 q -0.26562,0.21875 -0.70312,0.4375 -0.4375,0.20312 -0.95313,0.375 -0.51562,0.15625 -1.09375,0.25 -0.57812,0.10937 -1.14062,0.10937 -0.95313,0 -1.3125,-0.375 -0.35938,-0.39062 -0.35938,-0.8125 0,-0.48437 0.10938,-1.32812 0.10937,-0.85938 0.42187,-1.98438 h -0.10937 q -0.34375,0.64063 -0.875,1.4375 -0.53125,0.79688 -1.25,1.51563 -0.71875,0.70312 -1.65625,1.17187 -0.9375,0.45313 -2.04688,0.45313 -1.09378,0 -1.78128,-0.64063 -0.67188,-0.65625 -0.67188,-1.85937 0,-0.57813 0.17188,-1.67188 0.17187,-1.09375 0.42187,-2.39062 0.25,-1.29688 0.54688,-2.67188 0.3125,-1.375 0.56253,-2.51562 l -1.57816,-0.34375 v -0.90625 q 0.42188,-0.15625 1.0625,-0.3125 0.64066,-0.17188 1.32816,-0.29688 0.70313,-0.14062 1.42188,-0.23437 0.71875,-0.0937 1.3125,-0.10938 l 0.57812,0.3125 q -0.42187,2 -0.85937,3.79688 -0.4375,1.79687 -0.8125,3.79687 -0.14063,0.64063 -0.29688,1.42188 -0.14062,0.76562 -0.14062,1.54687 0,0.46875 0.25,0.71875 0.26562,0.23438 0.64062,0.23438 0.65625,0 1.3125,-0.51563 0.65625,-0.53125 1.20313,-1.25 0.54687,-0.73437 0.95312,-1.5 0.42188,-0.78125 0.60938,-1.29687 l 1.39062,-6.95313 h 3.59375 l -2.10937,11.48438 z"
       fill-rule="nonzero"
       id="path233" />
    <path
       fill="#ffffff"
       d="m 389.7428,234.85039 h 90.07873 V 305.1496 H 389.7428 Z"
       fill-rule="evenodd"
       id="path235" />
    <path
       stroke="#000000"
       stroke-width="3"
       stroke-miterlimit="800"
       stroke-linecap="butt"
       d="m 389.7428,234.85039 h 90.07873 V 305.1496 H 389.7428 Z"
       fill-rule="evenodd"
       id="path237" />
    <path
       fill="#000000"
       fill-opacity="0"
       d="m 395.67972,249.13518 h 78.20471 v 42.01573 h -78.20471 z"
       fill-rule="evenodd"
       id="path239" />
    <path
       fill="#000000"
       d="m 424.39935,270.39142 h 7.51563 l -0.34375,1.6875 h -7.54688 z m 19.14136,8.34375 h -7.78125 l 0.15625,-0.76563 q 0.71875,-0.32812 1.45312,-0.53125 0.73438,-0.21875 1.48438,-0.375 l 2.76562,-13.09375 0.5,-1.57812 q -0.76562,0.29687 -1.65625,0.42187 -0.875,0.10938 -1.71875,0.0937 v -0.64062 q 1.29688,-0.40625 2.73438,-0.98438 1.45312,-0.59375 2.75,-1.53125 h 0.67187 l -3.65625,17.3125 q 1.3125,0.28125 2.45313,0.90625 z"
       fill-rule="nonzero"
       id="path241" />
    <path
       fill="#000000"
       fill-opacity="0"
       d="m 548.80316,107.58793 h 29.16534 v 64.62992 h -29.16534 z"
       fill-rule="evenodd"
       id="path243" />
    <path
       fill="#000000"
       d="m 575.4438,141.94354 q 0,0.51563 -0.0625,0.85938 -0.0469,0.34375 -0.15625,0.5625 -0.10938,0.20312 -0.25,0.29687 -0.14063,0.0937 -0.3125,0.0937 h -5.67188 v 6.17188 q 0,0.1875 -0.0937,0.32812 -0.0781,0.125 -0.29687,0.23438 -0.21875,0.0937 -0.59375,0.15625 -0.35938,0.0469 -0.90625,0.0469 -0.54688,0 -0.92188,-0.0469 -0.35937,-0.0625 -0.57812,-0.15625 -0.21875,-0.10938 -0.32813,-0.23438 -0.0937,-0.14062 -0.0937,-0.32812 v -6.17188 h -5.64062 q -0.17188,0 -0.3125,-0.0937 -0.125,-0.0937 -0.23438,-0.29687 -0.10937,-0.21875 -0.17187,-0.5625 -0.0625,-0.34375 -0.0625,-0.85938 0,-0.48437 0.0469,-0.84375 0.0625,-0.35937 0.15625,-0.5625 0.0937,-0.21875 0.21875,-0.29687 0.14063,-0.0937 0.29688,-0.0937 h 5.70312 v -6.17188 q 0,-0.17187 0.0937,-0.32812 0.10938,-0.15625 0.32813,-0.25 0.21875,-0.10938 0.57812,-0.15625 0.375,-0.0625 0.92188,-0.0625 0.54687,0 0.90625,0.0625 0.375,0.0469 0.59375,0.15625 0.21875,0.0937 0.29687,0.25 0.0937,0.15625 0.0937,0.32812 v 6.17188 h 5.73438 q 0.14062,0 0.26562,0.0937 0.14063,0.0781 0.23438,0.29687 0.10937,0.20313 0.15625,0.5625 0.0625,0.35938 0.0625,0.84375 z"
       fill-rule="nonzero"
       id="path245" />
    <path
       fill="#000000"
       fill-opacity="0"
       d="m 421.65353,143.03687 123.49606,0.44095"
       fill-rule="evenodd"
       id="path247" />
    <path
       stroke="#000000"
       stroke-width="3"
       stroke-miterlimit="800"
       stroke-linecap="butt"
       d="m 421.65353,143.03687 105.49619,0.37668"
       fill-rule="evenodd"
       id="path249" />
    <path
       fill="#000000"
       stroke="#000000"
       stroke-width="3"
       stroke-linecap="butt"
       d="m 527.132,148.36871 13.6319,-4.90656 -13.5965,-5.00378 z"
       fill-rule="evenodd"
       id="path251" />
    <path
       fill="#000000"
       fill-opacity="0"
       d="m 589.2126,143.47781 45.19684,0.40945"
       fill-rule="evenodd"
       id="path253" />
    <path
       stroke="#000000"
       stroke-width="3"
       stroke-miterlimit="800"
       stroke-linecap="butt"
       d="m 589.2126,143.47781 27.19763,0.24638"
       fill-rule="evenodd"
       id="path255" />
    <path
       fill="#000000"
       stroke="#000000"
       stroke-width="3"
       stroke-linecap="butt"
       d="m 616.3653,148.6792 13.65863,-4.83166 -13.56885,-5.07833 z"
       fill-rule="evenodd"
       id="path257" />
    <path
       fill="#000000"
       fill-opacity="0"
       d="m 775.6627,142.80052 87.62207,-0.31496"
       fill-rule="evenodd"
       id="path259" />
    <path
       stroke="#000000"
       stroke-width="3"
       stroke-miterlimit="800"
       stroke-linecap="butt"
       d="m 775.6627,142.80052 69.62213,-0.25026"
       fill-rule="evenodd"
       id="path261" />
    <path
       fill="#000000"
       stroke="#000000"
       stroke-width="3"
       stroke-linecap="butt"
       d="m 845.30273,147.50543 13.59637,-5.0041 -13.63201,-4.90624 z"
       fill-rule="evenodd"
       id="path263" />
    <path
       fill="#000000"
       fill-opacity="0"
       d="m 566.3937,82.879265 1.57483,37.259845"
       fill-rule="evenodd"
       id="path265" />
    <path
       stroke="#000000"
       stroke-width="3"
       stroke-miterlimit="800"
       stroke-linecap="butt"
       d="m 566.3937,82.879265 0.81476,19.275905"
       fill-rule="evenodd"
       id="path267" />
    <path
       fill="#000000"
       stroke="#000000"
       stroke-width="3"
       stroke-linecap="butt"
       d="m 562.2576,102.36441 5.5257,13.3929 4.37585,-13.81139 z"
       fill-rule="evenodd"
       id="path269" />
  </g>
</svg>
